<mxfile host="app.diagrams.net" modified="2022-05-16T14:06:24.292Z" agent="5.0 (Macintosh; Intel Mac OS X 10_15_6) AppleWebKit/605.1.15 (KHTML, like Gecko) Version/15.4 Safari/605.1.15" etag="y0xOEDd2xZKS0Lz6osjz" version="18.0.6" type="github">
  <diagram id="MK9l8ks_u4rG-nRjyHyr" name="Page-1">
    <mxGraphModel dx="696" dy="552" grid="1" gridSize="10" guides="1" tooltips="1" connect="1" arrows="1" fold="1" page="0" pageScale="1" pageWidth="1169" pageHeight="827" math="0" shadow="0">
      <root>
        <mxCell id="0" />
        <mxCell id="1" parent="0" />
        <mxCell id="qtG5wZjU75cwOi6LAXTQ-15" style="edgeStyle=orthogonalEdgeStyle;rounded=0;orthogonalLoop=1;jettySize=auto;html=1;entryX=0;entryY=0.5;entryDx=0;entryDy=0;" parent="1" source="qtG5wZjU75cwOi6LAXTQ-2" target="qtG5wZjU75cwOi6LAXTQ-14" edge="1">
          <mxGeometry relative="1" as="geometry" />
        </mxCell>
        <mxCell id="qtG5wZjU75cwOi6LAXTQ-2" value="Placement Points Information&lt;br&gt;In Excel format" style="rounded=0;whiteSpace=wrap;html=1;fillColor=#0050ef;strokeColor=#001DBC;fontColor=#ffffff;" parent="1" vertex="1">
          <mxGeometry x="440" y="125" width="120" height="40" as="geometry" />
        </mxCell>
        <mxCell id="qtG5wZjU75cwOi6LAXTQ-13" style="edgeStyle=orthogonalEdgeStyle;rounded=0;orthogonalLoop=1;jettySize=auto;html=1;entryX=0;entryY=0.5;entryDx=0;entryDy=0;" parent="1" source="qtG5wZjU75cwOi6LAXTQ-6" target="qtG5wZjU75cwOi6LAXTQ-2" edge="1">
          <mxGeometry relative="1" as="geometry" />
        </mxCell>
        <mxCell id="qtG5wZjU75cwOi6LAXTQ-6" value="Horizontal Alignment" style="swimlane;" parent="1" vertex="1">
          <mxGeometry x="40" y="40" width="360" height="210" as="geometry" />
        </mxCell>
        <mxCell id="qtG5wZjU75cwOi6LAXTQ-7" style="edgeStyle=orthogonalEdgeStyle;rounded=0;orthogonalLoop=1;jettySize=auto;html=1;entryX=0;entryY=0.5;entryDx=0;entryDy=0;" parent="qtG5wZjU75cwOi6LAXTQ-6" source="qtG5wZjU75cwOi6LAXTQ-3" target="qtG5wZjU75cwOi6LAXTQ-5" edge="1">
          <mxGeometry relative="1" as="geometry" />
        </mxCell>
        <mxCell id="qtG5wZjU75cwOi6LAXTQ-3" value="Alignment Drawing" style="rounded=0;whiteSpace=wrap;html=1;" parent="qtG5wZjU75cwOi6LAXTQ-6" vertex="1">
          <mxGeometry x="30" y="50" width="120" height="50" as="geometry" />
        </mxCell>
        <mxCell id="qtG5wZjU75cwOi6LAXTQ-4" value="Intersection Lines Drawing" style="rounded=0;whiteSpace=wrap;html=1;" parent="qtG5wZjU75cwOi6LAXTQ-6" vertex="1">
          <mxGeometry x="30" y="130" width="120" height="50" as="geometry" />
        </mxCell>
        <mxCell id="qtG5wZjU75cwOi6LAXTQ-9" style="edgeStyle=orthogonalEdgeStyle;rounded=0;orthogonalLoop=1;jettySize=auto;html=1;entryX=0;entryY=0.5;entryDx=0;entryDy=0;" parent="qtG5wZjU75cwOi6LAXTQ-6" source="qtG5wZjU75cwOi6LAXTQ-4" target="qtG5wZjU75cwOi6LAXTQ-5" edge="1">
          <mxGeometry relative="1" as="geometry">
            <mxPoint x="200" y="270" as="targetPoint" />
          </mxGeometry>
        </mxCell>
        <mxCell id="qtG5wZjU75cwOi6LAXTQ-5" value="Dynamo" style="swimlane;" parent="qtG5wZjU75cwOi6LAXTQ-6" vertex="1">
          <mxGeometry x="200" y="50" width="140" height="135" as="geometry" />
        </mxCell>
        <mxCell id="qtG5wZjU75cwOi6LAXTQ-10" value="Find Intersection Point" style="text;html=1;align=center;verticalAlign=middle;resizable=0;points=[];autosize=1;strokeColor=none;fillColor=none;" parent="qtG5wZjU75cwOi6LAXTQ-5" vertex="1">
          <mxGeometry x="5" y="40" width="130" height="20" as="geometry" />
        </mxCell>
        <mxCell id="qtG5wZjU75cwOi6LAXTQ-11" value="Export to Excel Format&lt;br&gt;(Contains XY Point,&lt;br&gt;Purpose and Station)" style="text;html=1;align=center;verticalAlign=middle;resizable=0;points=[];autosize=1;strokeColor=none;fillColor=none;" parent="qtG5wZjU75cwOi6LAXTQ-5" vertex="1">
          <mxGeometry y="85" width="140" height="50" as="geometry" />
        </mxCell>
        <mxCell id="qtG5wZjU75cwOi6LAXTQ-12" value="" style="edgeStyle=orthogonalEdgeStyle;rounded=0;orthogonalLoop=1;jettySize=auto;html=1;" parent="qtG5wZjU75cwOi6LAXTQ-5" source="qtG5wZjU75cwOi6LAXTQ-10" target="qtG5wZjU75cwOi6LAXTQ-11" edge="1">
          <mxGeometry relative="1" as="geometry" />
        </mxCell>
        <mxCell id="qtG5wZjU75cwOi6LAXTQ-14" value="Vertical Alignment" style="swimlane;" parent="1" vertex="1">
          <mxGeometry x="610" y="42.5" width="360" height="205" as="geometry" />
        </mxCell>
        <mxCell id="qtG5wZjU75cwOi6LAXTQ-16" value="Vertical Alignment Information" style="rounded=0;whiteSpace=wrap;html=1;" parent="qtG5wZjU75cwOi6LAXTQ-14" vertex="1">
          <mxGeometry x="20" y="67.5" width="120" height="70" as="geometry" />
        </mxCell>
      </root>
    </mxGraphModel>
  </diagram>
</mxfile>
